<svg width="473" height="133" viewBox="0 0 473 133" fill="none" xmlns="http://www.w3.org/2000/svg">
<path d="M238.152 79.1534C236.552 79.1534 235.184 78.8734 234.048 78.3134C232.928 77.7534 232.024 77.0254 231.336 76.1294C230.648 75.2334 230.144 74.2654 229.824 73.2254C229.504 72.1694 229.344 71.1534 229.344 70.1774V69.6494C229.344 68.5934 229.504 67.5374 229.824 66.4814C230.16 65.4254 230.672 64.4654 231.36 63.6014C232.048 62.7374 232.944 62.0414 234.048 61.5134C235.152 60.9854 236.472 60.7214 238.008 60.7214C240.344 60.7214 242.184 61.3214 243.528 62.5214C244.888 63.7054 245.68 65.2894 245.904 67.2734H243.504C243.296 65.7854 242.68 64.6814 241.656 63.9614C240.648 63.2414 239.432 62.8814 238.008 62.8814C236.632 62.8814 235.472 63.2014 234.528 63.8414C233.6 64.4654 232.904 65.3134 232.44 66.3854C231.976 67.4414 231.744 68.6254 231.744 69.9374C231.744 71.1854 231.976 72.3454 232.44 73.4174C232.92 74.4894 233.632 75.3534 234.576 76.0094C235.536 76.6654 236.728 76.9934 238.152 76.9934C239.656 76.9934 240.92 76.6174 241.944 75.8654C242.968 75.1134 243.592 74.0254 243.816 72.6014H246.216C246.056 73.8014 245.648 74.8974 244.992 75.8894C244.352 76.8814 243.456 77.6734 242.304 78.2654C241.168 78.8574 239.784 79.1534 238.152 79.1534ZM252.838 79.0574C251.382 79.0574 250.238 78.6974 249.406 77.9774C248.59 77.2414 248.182 76.2094 248.182 74.8814C248.182 73.5214 248.638 72.4974 249.55 71.8094C250.462 71.1054 251.75 70.7534 253.414 70.7534H256.654V70.4414C256.654 68.6654 255.758 67.7774 253.966 67.7774C253.23 67.7774 252.462 67.7934 251.662 67.8254C250.862 67.8574 250.198 67.8894 249.67 67.9214V65.9054C250.182 65.8574 250.75 65.8254 251.374 65.8094C252.014 65.7774 252.622 65.7614 253.198 65.7614C255.166 65.7614 256.598 66.1214 257.494 66.8414C258.406 67.5614 258.862 68.8174 258.862 70.6094V78.7214H257.038V76.1774C256.462 78.0974 255.062 79.0574 252.838 79.0574ZM253.318 77.2334C253.862 77.2334 254.382 77.1374 254.878 76.9454C255.374 76.7374 255.782 76.4014 256.102 75.9374C256.438 75.4574 256.622 74.8014 256.654 73.9694V72.4814H253.318C252.39 72.4814 251.678 72.7054 251.182 73.1534C250.686 73.6014 250.438 74.1774 250.438 74.8814C250.438 75.5854 250.686 76.1534 251.182 76.5854C251.678 77.0174 252.39 77.2334 253.318 77.2334ZM267.291 79.1054C265.611 79.1054 264.307 78.7454 263.379 78.0254C262.467 77.3054 261.995 76.3214 261.963 75.0734H264.123C264.155 75.5694 264.403 76.0414 264.867 76.4894C265.347 76.9214 266.155 77.1374 267.291 77.1374C268.315 77.1374 269.099 76.9374 269.643 76.5374C270.187 76.1214 270.459 75.6174 270.459 75.0254C270.459 74.4974 270.259 74.0894 269.859 73.8014C269.459 73.4974 268.811 73.2974 267.915 73.2014L266.523 73.0574C265.307 72.9294 264.315 72.5694 263.547 71.9774C262.779 71.3694 262.395 70.5214 262.395 69.4334C262.395 68.2014 262.851 67.2414 263.763 66.5534C264.675 65.8654 265.851 65.5214 267.291 65.5214C268.731 65.5214 269.899 65.8414 270.795 66.4814C271.691 67.1214 272.155 68.0734 272.187 69.3374H270.027C270.011 68.8254 269.771 68.3934 269.307 68.0414C268.859 67.6734 268.187 67.4894 267.291 67.4894C266.395 67.4894 265.715 67.6734 265.251 68.0414C264.787 68.4094 264.555 68.8734 264.555 69.4334C264.555 69.9134 264.715 70.2974 265.035 70.5854C265.371 70.8734 265.915 71.0574 266.667 71.1374L268.059 71.2814C269.435 71.4254 270.539 71.8094 271.371 72.4334C272.203 73.0414 272.619 73.9054 272.619 75.0254C272.619 75.8254 272.387 76.5374 271.923 77.1614C271.475 77.7694 270.851 78.2494 270.051 78.6014C269.251 78.9374 268.331 79.1054 267.291 79.1054ZM280.95 78.8654C279.99 78.8654 279.158 78.7294 278.454 78.4574C277.766 78.1854 277.23 77.7214 276.846 77.0654C276.478 76.3934 276.294 75.4894 276.294 74.3534V67.6334H274.086V65.9054H276.294V62.0174H278.502V65.9054H282.918V67.6334H278.502V74.6414C278.502 75.3294 278.686 75.8654 279.054 76.2494C279.438 76.6174 279.974 76.8014 280.662 76.8014H282.918V78.8654H280.95ZM286.513 78.7214V61.2014H289.633L294.817 72.8894H295.201L300.361 61.2014H303.505V78.7214H301.153V64.2014L296.353 75.0974H293.473L288.673 64.2494V78.7214H286.513ZM311.807 79.0574C310.351 79.0574 309.207 78.6974 308.375 77.9774C307.559 77.2414 307.151 76.2094 307.151 74.8814C307.151 73.5214 307.607 72.4974 308.519 71.8094C309.431 71.1054 310.719 70.7534 312.383 70.7534H315.623V70.4414C315.623 68.6654 314.727 67.7774 312.935 67.7774C312.199 67.7774 311.431 67.7934 310.631 67.8254C309.831 67.8574 309.167 67.8894 308.639 67.9214V65.9054C309.151 65.8574 309.719 65.8254 310.343 65.8094C310.983 65.7774 311.591 65.7614 312.167 65.7614C314.135 65.7614 315.567 66.1214 316.463 66.8414C317.375 67.5614 317.831 68.8174 317.831 70.6094V78.7214H316.007V76.1774C315.431 78.0974 314.031 79.0574 311.807 79.0574ZM312.287 77.2334C312.831 77.2334 313.351 77.1374 313.847 76.9454C314.343 76.7374 314.751 76.4014 315.071 75.9374C315.407 75.4574 315.591 74.8014 315.623 73.9694V72.4814H312.287C311.359 72.4814 310.647 72.7054 310.151 73.1534C309.655 73.6014 309.407 74.1774 309.407 74.8814C309.407 75.5854 309.655 76.1534 310.151 76.5854C310.647 77.0174 311.359 77.2334 312.287 77.2334ZM326.26 79.1054C324.58 79.1054 323.276 78.7454 322.348 78.0254C321.436 77.3054 320.964 76.3214 320.932 75.0734H323.092C323.124 75.5694 323.372 76.0414 323.836 76.4894C324.316 76.9214 325.124 77.1374 326.26 77.1374C327.284 77.1374 328.068 76.9374 328.612 76.5374C329.156 76.1214 329.428 75.6174 329.428 75.0254C329.428 74.4974 329.228 74.0894 328.828 73.8014C328.428 73.4974 327.78 73.2974 326.884 73.2014L325.492 73.0574C324.276 72.9294 323.284 72.5694 322.516 71.9774C321.748 71.3694 321.364 70.5214 321.364 69.4334C321.364 68.2014 321.82 67.2414 322.732 66.5534C323.644 65.8654 324.82 65.5214 326.26 65.5214C327.7 65.5214 328.868 65.8414 329.764 66.4814C330.66 67.1214 331.124 68.0734 331.156 69.3374H328.996C328.98 68.8254 328.74 68.3934 328.276 68.0414C327.828 67.6734 327.156 67.4894 326.26 67.4894C325.364 67.4894 324.684 67.6734 324.22 68.0414C323.756 68.4094 323.524 68.8734 323.524 69.4334C323.524 69.9134 323.684 70.2974 324.004 70.5854C324.34 70.8734 324.884 71.0574 325.636 71.1374L327.028 71.2814C328.404 71.4254 329.508 71.8094 330.34 72.4334C331.172 73.0414 331.588 73.9054 331.588 75.0254C331.588 75.8254 331.356 76.5374 330.892 77.1614C330.444 77.7694 329.82 78.2494 329.02 78.6014C328.22 78.9374 327.3 79.1054 326.26 79.1054ZM334.927 78.7214V61.2014H337.231V68.1614C337.583 67.3134 338.087 66.6654 338.743 66.2174C339.415 65.7534 340.271 65.5214 341.311 65.5214H341.407C342.943 65.5214 344.103 66.0334 344.887 67.0574C345.671 68.0654 346.063 69.5134 346.063 71.4014V78.7214H343.759V70.9214C343.759 69.8814 343.463 69.0734 342.871 68.4974C342.295 67.9214 341.543 67.6334 340.615 67.6334C339.591 67.6334 338.767 67.9774 338.143 68.6654C337.535 69.3374 337.231 70.2254 337.231 71.3294V78.7214H334.927Z" fill="white"/>
<line x1="194.783" y1="41" x2="194.783" y2="94.9977" stroke="#605DEC" stroke-width="6"/>
<circle cx="118.768" cy="78.6455" r="1.90114" fill="white"/>
<circle cx="119.529" cy="67.999" r="1.90114" fill="white"/>
<circle cx="118.768" cy="57.3528" r="1.90114" fill="white"/>
<circle cx="119.529" cy="84.729" r="1.90114" fill="white"/>
<circle cx="118.768" cy="73.3223" r="1.90114" fill="white"/>
<circle cx="118.768" cy="62.6758" r="1.90114" fill="white"/>
<circle cx="119.529" cy="52.0296" r="1.90114" fill="white"/>
<circle cx="127.894" cy="89.2918" r="1.14068" fill="white"/>
<circle cx="127.894" cy="51.2691" r="1.14068" fill="white"/>
<circle cx="123.711" cy="88.1513" r="1.52091" fill="white"/>
<circle cx="124.091" cy="50.5086" r="1.14068" fill="white"/>
<circle cx="127.894" cy="77.8851" r="1.14068" fill="white"/>
<circle cx="127.894" cy="62.6758" r="1.14068" fill="white"/>
<circle cx="123.711" cy="79.786" r="1.52091" fill="white"/>
<circle cx="123.711" cy="63.0561" r="1.52091" fill="white"/>
<circle cx="127.894" cy="85.4896" r="1.14068" fill="white"/>
<circle cx="127.894" cy="55.0714" r="1.14068" fill="white"/>
<circle cx="124.091" cy="83.9686" r="1.14068" fill="white"/>
<circle cx="123.711" cy="54.6911" r="1.52091" fill="white"/>
<circle cx="127.894" cy="74.0828" r="1.14068" fill="white"/>
<circle cx="124.091" cy="75.6036" r="1.14068" fill="white"/>
<circle cx="135.498" cy="81.6873" r="1.14068" fill="white"/>
<circle cx="143.103" cy="85.4896" r="1.14068" fill="white"/>
<circle cx="135.498" cy="58.8736" r="1.14068" fill="white"/>
<circle cx="127.894" cy="81.6873" r="1.14068" fill="white"/>
<circle cx="127.894" cy="58.8736" r="1.14068" fill="white"/>
<circle cx="131.696" cy="81.6873" r="1.14068" fill="white"/>
<circle cx="131.696" cy="58.8736" r="1.14068" fill="white"/>
<circle cx="119.529" cy="89.2918" r="1.14068" fill="white"/>
<circle cx="123.331" cy="58.8736" r="1.14068" fill="white"/>
<circle cx="135.498" cy="70.2806" r="1.14068" fill="white"/>
<circle cx="127.894" cy="70.2806" r="1.14068" fill="white"/>
<circle cx="131.696" cy="70.2806" r="1.14068" fill="white"/>
<circle cx="123.711" cy="71.4211" r="1.52091" fill="white"/>
<circle cx="139.3" cy="74.0828" r="1.14068" fill="white"/>
<circle cx="139.3" cy="66.4781" r="1.14068" fill="white"/>
<circle cx="124.091" cy="67.2386" r="1.14068" fill="white"/>
<circle cx="139.3" cy="81.6873" r="1.14068" fill="white"/>
<circle cx="146.905" cy="85.4896" r="1.14068" fill="white"/>
<circle cx="139.3" cy="58.8736" r="1.14068" fill="white"/>
<circle cx="143.103" cy="77.8851" r="1.14068" fill="white"/>
<circle cx="143.103" cy="62.6758" r="1.14068" fill="white"/>
<circle cx="146.905" cy="70.2806" r="1.14068" fill="white"/>
<circle cx="150.707" cy="70.2806" r="1.14068" fill="white"/>
<circle cx="143.103" cy="66.4781" r="1.14068" fill="white"/>
<circle cx="127.894" cy="66.4781" r="1.14068" fill="white"/>
<circle cx="135.498" cy="89.2918" r="1.14068" fill="white"/>
<circle cx="135.498" cy="51.2691" r="1.14068" fill="white"/>
<circle cx="92.1522" cy="51.2691" r="1.14068" fill="white"/>
<circle cx="88.3499" cy="55.0714" r="1.14068" fill="white"/>
<circle cx="131.696" cy="89.2918" r="1.14068" fill="white"/>
<circle cx="131.696" cy="51.2691" r="1.14068" fill="white"/>
<circle cx="135.498" cy="77.8851" r="1.14068" fill="white"/>
<circle cx="135.498" cy="62.6758" r="1.14068" fill="white"/>
<circle cx="131.696" cy="77.8851" r="1.14068" fill="white"/>
<circle cx="131.696" cy="62.6758" r="1.14068" fill="white"/>
<circle cx="135.498" cy="85.4896" r="1.14068" fill="white"/>
<circle cx="135.498" cy="55.0714" r="1.14068" fill="white"/>
<circle cx="131.696" cy="85.4896" r="1.14068" fill="white"/>
<circle cx="131.696" cy="55.0714" r="1.14068" fill="white"/>
<circle cx="135.498" cy="74.0828" r="1.14068" fill="white"/>
<circle cx="131.696" cy="74.0828" r="1.14068" fill="white"/>
<circle cx="139.3" cy="77.8851" r="1.14068" fill="white"/>
<circle cx="139.3" cy="62.6758" r="1.14068" fill="white"/>
<circle cx="139.3" cy="70.2806" r="1.14068" fill="white"/>
<circle cx="139.3" cy="85.4896" r="1.14068" fill="white"/>
<circle cx="139.3" cy="55.0714" r="1.14068" fill="white"/>
<circle cx="143.103" cy="81.6873" r="1.14068" fill="white"/>
<circle cx="154.51" cy="74.0828" r="1.14068" fill="white"/>
<circle cx="143.103" cy="58.8736" r="1.14068" fill="white"/>
<circle cx="146.905" cy="74.0828" r="1.14068" fill="white"/>
<circle cx="150.707" cy="62.6758" r="1.14068" fill="white"/>
<circle cx="143.103" cy="74.0828" r="1.14068" fill="white"/>
<circle cx="146.905" cy="77.8851" r="1.14068" fill="white"/>
<circle cx="146.905" cy="62.6758" r="1.14068" fill="white"/>
<circle cx="150.707" cy="74.0828" r="1.14068" fill="white"/>
<circle cx="154.51" cy="62.6758" r="1.14068" fill="white"/>
<circle cx="146.905" cy="58.8736" r="1.14068" fill="white"/>
<circle cx="143.103" cy="70.2806" r="1.14068" fill="white"/>
<circle cx="150.707" cy="66.4781" r="1.14068" fill="white"/>
<circle cx="146.905" cy="55.0714" r="1.14068" fill="white"/>
<circle cx="116.106" cy="65.3376" r="0.760456" fill="white"/>
<circle cx="116.106" cy="69.9004" r="0.760456" fill="white"/>
<circle cx="116.106" cy="75.9838" r="0.760456" fill="white"/>
<circle cx="116.106" cy="82.0676" r="0.760456" fill="white"/>
<circle cx="116.106" cy="60.0144" r="0.760456" fill="white"/>
<circle cx="116.106" cy="53.9306" r="0.760456" fill="white"/>
<circle cx="116.106" cy="87.3908" r="0.760456" fill="white"/>
<circle cx="135.498" cy="66.4781" r="1.14068" fill="white"/>
<circle cx="146.905" cy="66.4781" r="1.14068" fill="white"/>
<circle cx="143.103" cy="55.0714" r="1.14068" fill="white"/>
<circle cx="131.696" cy="66.4781" r="1.14068" fill="white"/>
<circle r="1.90114" transform="matrix(-1 0 0 1 113.445 78.6455)" fill="white"/>
<circle r="1.90114" transform="matrix(-1 0 0 1 112.684 67.999)" fill="white"/>
<circle r="1.90114" transform="matrix(-1 0 0 1 113.445 57.3528)" fill="white"/>
<circle r="1.90114" transform="matrix(-1 0 0 1 112.684 84.729)" fill="white"/>
<circle r="1.90114" transform="matrix(-1 0 0 1 113.445 73.3223)" fill="white"/>
<circle r="1.90114" transform="matrix(-1 0 0 1 113.445 62.6758)" fill="white"/>
<circle r="1.90114" transform="matrix(-1 0 0 1 112.684 52.0296)" fill="white"/>
<circle r="1.14068" transform="matrix(-1 0 0 1 104.319 89.2918)" fill="white"/>
<circle r="1.14068" transform="matrix(-1 0 0 1 104.319 51.2691)" fill="white"/>
<circle r="1.52091" transform="matrix(-1 0 0 1 108.502 88.1513)" fill="white"/>
<circle r="1.14068" transform="matrix(-1 0 0 1 108.122 50.5086)" fill="white"/>
<circle r="1.14068" transform="matrix(-1 0 0 1 104.319 77.8851)" fill="white"/>
<circle r="1.14068" transform="matrix(-1 0 0 1 104.319 62.6758)" fill="white"/>
<circle r="1.52091" transform="matrix(-1 0 0 1 108.502 79.786)" fill="white"/>
<circle r="1.52091" transform="matrix(-1 0 0 1 108.502 63.0561)" fill="white"/>
<circle r="1.14068" transform="matrix(-1 0 0 1 104.319 85.4896)" fill="white"/>
<circle r="1.14068" transform="matrix(-1 0 0 1 104.319 55.0713)" fill="white"/>
<circle r="1.14068" transform="matrix(-1 0 0 1 108.122 83.9686)" fill="white"/>
<circle r="1.52091" transform="matrix(-1 0 0 1 108.502 54.6911)" fill="white"/>
<circle r="1.14068" transform="matrix(-1 0 0 1 104.319 74.0828)" fill="white"/>
<circle r="1.14068" transform="matrix(-1 0 0 1 108.122 75.6036)" fill="white"/>
<circle r="1.14068" transform="matrix(-1 0 0 1 95.9543 81.6873)" fill="white"/>
<circle r="1.14068" transform="matrix(-1 0 0 1 95.9543 58.8736)" fill="white"/>
<circle r="1.14068" transform="matrix(-1 0 0 1 104.319 81.6873)" fill="white"/>
<circle r="1.14068" transform="matrix(-1 0 0 1 104.319 58.8736)" fill="white"/>
<circle r="1.14068" transform="matrix(-1 0 0 1 100.517 81.6873)" fill="white"/>
<circle r="1.14068" transform="matrix(-1 0 0 1 100.517 58.8736)" fill="white"/>
<circle r="1.14068" transform="matrix(-1 0 0 1 112.685 89.2918)" fill="white"/>
<circle r="1.14068" transform="matrix(-1 0 0 1 108.882 58.8736)" fill="white"/>
<circle r="1.14068" transform="matrix(-1 0 0 1 95.9543 70.2806)" fill="white"/>
<circle r="1.14068" transform="matrix(-1 0 0 1 104.319 70.2806)" fill="white"/>
<circle r="1.14068" transform="matrix(-1 0 0 1 100.517 70.2806)" fill="white"/>
<circle r="1.52091" transform="matrix(-1 0 0 1 108.502 71.4211)" fill="white"/>
<circle r="1.14068" transform="matrix(-1 0 0 1 92.152 74.0828)" fill="white"/>
<circle r="1.14068" transform="matrix(-1 0 0 1 92.152 66.4781)" fill="white"/>
<circle r="1.14068" transform="matrix(-1 0 0 1 108.122 67.2386)" fill="white"/>
<circle r="1.14068" transform="matrix(-1 0 0 1 92.152 81.6873)" fill="white"/>
<circle r="1.14068" transform="matrix(-1 0 0 1 84.5475 81.6873)" fill="white"/>
<circle r="1.14068" transform="matrix(-1 0 0 1 92.152 58.8736)" fill="white"/>
<circle r="1.14068" transform="matrix(-1 0 0 1 84.5475 58.8736)" fill="white"/>
<circle r="1.14068" transform="matrix(-1 0 0 1 88.3498 77.8851)" fill="white"/>
<circle r="1.14068" transform="matrix(-1 0 0 1 88.3498 62.6758)" fill="white"/>
<circle r="1.14068" transform="matrix(-1 0 0 1 84.5475 70.2806)" fill="white"/>
<circle r="1.14068" transform="matrix(-1 0 0 1 76.9431 70.2806)" fill="white"/>
<circle r="1.14068" transform="matrix(-1 0 0 1 80.7453 70.2806)" fill="white"/>
<circle r="1.14068" transform="matrix(-1 0 0 1 73.1406 70.2806)" fill="white"/>
<circle r="1.14068" transform="matrix(-1 0 0 1 88.3498 66.4781)" fill="white"/>
<circle r="1.14068" transform="matrix(-1 0 0 1 104.319 66.4781)" fill="white"/>
<circle r="1.14068" transform="matrix(-1 0 0 1 95.9543 89.2918)" fill="white"/>
<circle r="1.14068" transform="matrix(-1 0 0 1 87.5893 89.2918)" fill="white"/>
<circle r="1.14068" transform="matrix(-1 0 0 1 95.9543 51.2691)" fill="white"/>
<circle r="1.14068" transform="matrix(-1 0 0 1 100.517 89.2918)" fill="white"/>
<circle r="1.14068" transform="matrix(-1 0 0 1 92.152 89.2918)" fill="white"/>
<circle r="1.14068" transform="matrix(-1 0 0 1 100.517 51.2691)" fill="white"/>
<circle r="1.14068" transform="matrix(-1 0 0 1 95.9543 77.8851)" fill="white"/>
<circle r="1.14068" transform="matrix(-1 0 0 1 95.9543 62.6758)" fill="white"/>
<circle r="1.14068" transform="matrix(-1 0 0 1 100.517 77.8851)" fill="white"/>
<circle r="1.14068" transform="matrix(-1 0 0 1 100.517 62.6758)" fill="white"/>
<circle r="1.14068" transform="matrix(-1 0 0 1 95.9543 85.4896)" fill="white"/>
<circle r="1.14068" transform="matrix(-1 0 0 1 95.9543 55.0713)" fill="white"/>
<circle r="1.14068" transform="matrix(-1 0 0 1 100.517 85.4896)" fill="white"/>
<circle r="1.14068" transform="matrix(-1 0 0 1 100.517 55.0713)" fill="white"/>
<circle r="1.14068" transform="matrix(-1 0 0 1 95.9543 74.0828)" fill="white"/>
<circle r="1.14068" transform="matrix(-1 0 0 1 100.517 74.0828)" fill="white"/>
<circle r="1.14068" transform="matrix(-1 0 0 1 92.152 77.8851)" fill="white"/>
<circle r="1.14068" transform="matrix(-1 0 0 1 92.152 62.6758)" fill="white"/>
<circle r="1.14068" transform="matrix(-1 0 0 1 92.152 70.2806)" fill="white"/>
<circle r="1.14068" transform="matrix(-1 0 0 1 92.152 85.4896)" fill="white"/>
<circle r="1.14068" transform="matrix(-1 0 0 1 92.152 55.0713)" fill="white"/>
<circle r="1.14068" transform="matrix(-1 0 0 1 88.3498 81.6873)" fill="white"/>
<circle r="1.14068" transform="matrix(-1 0 0 1 80.7453 81.6873)" fill="white"/>
<circle r="1.14068" transform="matrix(-1 0 0 1 88.3498 58.8736)" fill="white"/>
<circle r="1.14068" transform="matrix(-1 0 0 1 80.7453 58.8736)" fill="white"/>
<circle r="1.14068" transform="matrix(-1 0 0 1 84.5475 74.0828)" fill="white"/>
<circle r="1.14068" transform="matrix(-1 0 0 1 88.3498 74.0828)" fill="white"/>
<circle r="1.14068" transform="matrix(-1 0 0 1 84.5475 77.8851)" fill="white"/>
<circle r="1.14068" transform="matrix(-1 0 0 1 84.5475 62.6758)" fill="white"/>
<circle r="1.14068" transform="matrix(-1 0 0 1 80.7453 74.0828)" fill="white"/>
<circle r="1.14068" transform="matrix(-1 0 0 1 88.3498 70.2806)" fill="white"/>
<circle r="1.14068" transform="matrix(-1 0 0 1 80.7453 66.4781)" fill="white"/>
<circle r="1.14068" transform="matrix(-1 0 0 1 95.9543 66.4781)" fill="white"/>
<circle r="1.14068" transform="matrix(-1 0 0 1 84.5475 66.4781)" fill="white"/>
<circle r="1.14068" transform="matrix(-1 0 0 1 100.517 66.4781)" fill="white"/>
</svg>
